<?xml version="1.0" encoding="utf-8"?>
<!-- Generator: Adobe Illustrator 18.1.1, SVG Export Plug-In . SVG Version: 6.00 Build 0)  -->
<svg version="1.1" id="Layer_1" xmlns="http://www.w3.org/2000/svg" xmlns:xlink="http://www.w3.org/1999/xlink" x="0px" y="0px"
	 viewBox="0 0 182 200" enable-background="new 0 0 182 200" xml:space="preserve">
<polygon points="156.5,200 159.4,200 159.4,195 "/>
<polygon points="141.2,200 149.9,200 159.4,183.2 159.4,167.9 "/>
<polygon points="137,180.5 137,195.8 159.4,156.1 159.4,140.8 "/>
<polygon points="137,153.4 137,168.7 159.4,129 159.4,113.7 "/>
<polygon points="137,126.3 137,141.6 159.4,101.9 159.4,86.6 "/>
<polygon points="126.5,117.7 135.2,117.7 146.9,97 159.4,76.5 159.4,59.5 "/>
<!-- 
<path d="M137,72.1v15.4l22.4-39.7V32.4L137,72.1z"/>
<path d="M137,45v15.4l22.4-39.7V5.3L137,45z"/>
<path d="M137,0v6.2l3.5-6.2H137z"/>
<path d="M3.6,200h8.7l9.3-16.4v-15.4L3.6,200z"/>
<path d="M0,179.3v15.4L22.4,155v-15.4L0,179.3z"/>
-->
<polygon points="22.5,112.4 0,152.3 0,167.6 22.4,127.9 22.4,117.7 "/>
<polygon points="0,125.2 0,140.5 24.7,96.7 22.4,85.4 "/>
<polygon points="0,98.1 0,113.4 22.4,73.7 22.4,58.4 "/>
<polygon points="0,71 0,86.3 22.4,46.6 22.4,31.3 "/>
<polygon points="0,43.9 0,59.2 22.4,19.5 22.4,4.2 "/>
<polygon points="9.5,0 0,16.8 0,32.1 18.1,0 "/>
<polygon points="0,0 0,5 2.8,0 "/>
<polygon points="77.2,96.7 65.3,117.7 74,117.7 85.9,96.7 "/>
<polygon points="61.9,96.7 50.1,117.7 58.7,117.7 70.6,96.7 "/>
<path d="M147.1,0L137,17.9v15.4L155.7,0H147.1z"/>
<polygon points="92.5,96.7 80.6,117.7 89.3,117.7 101.1,96.7 "/>
<polygon points="46.6,96.7 34.8,117.7 43.4,117.7 55.3,96.7 "/>

<!-- <polygon points="18.9,200 21.6,200 21.6,195.3 "/> -->


<polygon points="137.000 72.100, 137.000 87.500, 159.400 47.800, 159.400 32.400, 137.000 72.100 "/>
<polygon points="137.000 45.000, 137.000 60.400, 159.400 20.700, 159.400 5.300, 137.000 45.000 "/>
<polygon points="137.000 0.000, 137.000 6.200, 140.500 0.000, 137.000 0.000 "/>
<polygon points="3.600 200.000, 12.300 200.000, 21.600 183.600, 21.600 168.200, 3.600 200.000 "/>
<polygon points="0.000 179.300, 0.000 194.700, 22.400 155.000, 22.400 139.600, 0.000 179.300 "/>
<polygon points="147.100 0.000, 137.000 17.900, 137.000 33.300, 155.700 0.000, 147.100 0.000 "/>

<!--
polygon(137.000 72.100, 137.000 87.500, 159.400 47.800, 159.400 32.400, 137.000 72.100)
polygon(137.000 45.000, 137.000 60.400, 159.400 20.700, 159.400 5.300, 137.000 45.000)
polygon(137.000 0.000, 137.000 6.200, 140.500 0.000, 137.000 0.000)
polygon(3.600 200.000, 12.300 200.000, 21.600 183.600, 21.600 168.200, 3.600 200.000)
polygon(0.000 179.300, 0.000 194.700, 22.400 155.000, 22.400 139.600, 0.000 179.300)
polygon(147.100 0.000, 137.000 17.900, 137.000 33.300, 155.700 0.000, 147.100 0.000)
-->

<polygon points="107.8,96.7 95.9,117.7 104.6,117.7 116.4,96.7 "/>
<polygon points="123.1,96.7 111.2,117.7 119.9,117.7 131.7,96.7 "/>
<polygon points="43.6,76.2 43.6,0 21.1,0 21.1,200 43.6,200 43.6,97.3 159.1,97.3 159.1,200 181.6,200 181.6,0 159.1,0 159.1,76.2 
	"/>
</svg>
