<?xml version="1.0" encoding="utf-8"?>
<!-- Generator: Adobe Illustrator 18.1.1, SVG Export Plug-In . SVG Version: 6.00 Build 0)  -->
<svg version="1.1" id="Layer_1" xmlns="http://www.w3.org/2000/svg" xmlns:xlink="http://www.w3.org/1999/xlink" x="0px" y="0px"
	 viewBox="0 0 200 200" enable-background="new 0 0 200 200" xml:space="preserve">
<polygon points="134.4,80.1 134.4,11.7 171.6,11.7 "/>
<polygon points="27.5,11.7 64.7,11.7 64.7,80.1 "/>
<polygon points="64.7,111 64.7,191 27.5,191 "/>
<polygon points="171.6,191 134.4,191 134.4,111 "/>
<g>
	<path d="M27.5,191V11.7l37.2,68.4V111L27.5,191z"/>
</g>
<g>
	<path d="M134.4,80.1l37.2-68.4V191l-37.2-80V80.1z"/>
</g>
<g>
	<path d="M99.5,95.5l34.8-15.4V111L99.5,95.5z"/>
</g>
<g>
	<path d="M64.7,80.1l34.8,15.4L64.7,111V80.1z"/>
</g>
<g>
	<path d="M64.7,80.1l34.8,15.4l34.8-15.4H64.7z"/>
</g>
<g>
	<path d="M99.5,95.5l34.8,15.4H99.5H64.7L99.5,95.5z"/>
</g>
</svg>
