<?xml version="1.0" encoding="utf-8"?>
<!-- Generator: Adobe Illustrator 18.1.1, SVG Export Plug-In . SVG Version: 6.00 Build 0)  -->
<svg version="1.1" id="Layer_1" xmlns="http://www.w3.org/2000/svg" xmlns:xlink="http://www.w3.org/1999/xlink" x="0px" y="0px"
	 viewBox="0 0 200 200" enable-background="new 0 0 200 200" xml:space="preserve">
<polygon points="171,147.8 171,36.2 135,41.2 135,79.4 132.9,82 65,82 62,79.4 62,51.5 27,56.5 27,74.3 101,112 132.9,112 
	135,114.6 135,129.7 "/>
<polygon points="137.9,11 135,14 135,66.4 171,79.5 171,14 168.1,11 "/>
<polygon points="105.1,97.9 27,119.5 27,185.1 29.8,188 59.9,188 62,185.1 62,114.6 65,112 107.5,112 "/>
<polygon points="62,79.4 62,39.7 39.2,11 29.8,11 27,14 27,119.5 105.1,97.9 102.3,82 65,82 "/>
<polygon points="107.5,112 132.9,112 135,114.6 135,185.1 137.9,188 168.1,188 171,185.1 171,124.3 135,79.4 132.9,82 102.3,82 "/>
</svg>
